<?xml version="1.0" encoding="UTF-8"?>
<!DOCTYPE svg PUBLIC "-//W3C//DTD SVG 1.1//EN" "http://www.w3.org/Graphics/SVG/1.1/DTD/svg11.dtd">
<svg xmlns="http://www.w3.org/2000/svg" version="1.1" width="1550px" height="280px" style="shape-rendering:geometricPrecision; text-rendering:geometricPrecision; image-rendering:optimizeQuality; fill-rule:evenodd; clip-rule:evenodd" xmlns:xlink="http://www.w3.org/1999/xlink">
<!-- <rect fill="#000000" x="0" y="0" width="1550" height="280"/> -->
<g fill="#ffffff">
    <path  transform="translate(15,0)" id="V" d="M 327 23 L 287 86 L 134 86 L 275 104 L 197 225 L 158 165 L 232 148 L 147 148 L 67 23 Z"/>
    <g transform="translate(-155,-40) scale(1.5)">
        <g><path id="i" d="M 323.5,102.5 C 329.167,102.5 334.833,102.5 340.5,102.5C 340.5,127.833 340.5,153.167 340.5,178.5C 334.833,178.5 329.167,178.5 323.5,178.5C 323.5,153.167 323.5,127.833 323.5,102.5 Z"/></g>
        <g><path id="dot" d="M 327.5,69.5 C 339.066,68.8981 343.566,74.2314 341,85.5C 337.301,90.272 332.467,91.772 326.5,90C 318.253,82.6602 318.586,75.8268 327.5,69.5 Z"/></g>
        <g><path id="n" d="M 418.5,133.5 C 418.5,148.5 418.5,163.5 418.5,178.5C 412.833,178.5 407.167,178.5 401.5,178.5C 401.667,162.163 401.5,145.83 401,129.5C 399.257,119.584 393.424,115.251 383.5,116.5C 380.113,116.539 376.78,116.872 373.5,117.5C 372.5,137.822 372.167,158.156 372.5,178.5C 366.833,178.5 361.167,178.5 355.5,178.5C 355.5,154.167 355.5,129.833 355.5,105.5C 360.219,103.705 365.219,102.538 370.5,102C 380.907,101.074 391.241,101.408 401.5,103C 413.759,109.34 419.425,119.506 418.5,133.5 Z"/></g>
        <g><path id="e" d="M 463.5 100.5 c 18.609 -1.1243 30.442 7.209 35.5 25 c 1.288 6.937 1.788 13.937 1.5 21 C 483.497 146.333 466.497 146.5 449.5 147 C 451.972 160.904 460.305 167.071 474.5 165.5 C 480.992 165.401 487.325 164.401 493.5 162.5 C 493.933 166.7 494.6 170.867 495.5 175 C 495.355 175.772 495.022 176.439 494.5 177 C 477.651 183.901 461.317 182.901 445.5 174 C 435.207 165.241 430.541 154.075 431.5 140.5 C 431.396 123.205 439.062 110.705 454.5 103 C 457 102 460.628 101.325 463.5 100.5 Z M 482.5 133.54 C 482.413 120.162 475.898 114.168 462.52 115.471 C 454.788 118.772 450.618 124.853 450.531 133.54 Z"/></g>
        <g><path id="apos" d="M 515.5,68.5 C 521.167,68.5 526.833,68.5 532.5,68.5C 532.5,73.8333 532.5,79.1667 532.5,84.5C 531.927,92.5084 531.261,100.508 530.5,108.5C 526.5,108.5 522.5,108.5 518.5,108.5C 516.51,95.2448 515.51,81.9114 515.5,68.5 Z"/></g>
        <g><path id="s" d="M 598.5,106.5 C 597.583,109.417 596.916,112.417 596.5,115.5C 596.092,116.643 595.425,117.643 594.5,118.5C 586.733,115.68 578.733,114.847 570.5,116C 565.857,118.072 564.357,121.572 566,126.5C 570.754,130.65 576.254,133.483 582.5,135C 600.465,141.241 605.965,153.074 599,170.5C 593.854,177.22 587.021,180.72 578.5,181C 567.591,181.941 556.925,180.775 546.5,177.5C 547.006,172.477 547.673,167.477 548.5,162.5C 553.513,163.559 558.513,164.725 563.5,166C 569.558,166.739 575.558,166.406 581.5,165C 585.698,160.368 585.364,156.035 580.5,152C 574.282,149.058 567.949,146.391 561.5,144C 548.084,136.341 544.584,125.508 551,111.5C 560.327,102.392 571.493,98.8924 584.5,101C 588.896,101.746 593.23,102.746 597.5,104C 598.252,104.671 598.586,105.504 598.5,106.5 Z"/></g>
        <g><path id="C" d="M 657.5,117.5 C 658.167,114.833 658.833,112.167 659.5,109.5C 661.247,105.009 663.247,100.675 665.5,96.5C 667.547,94.4504 669.214,92.117 670.5,89.5C 672.191,88.1363 673.858,86.803 675.5,85.5C 677.389,84.396 679.055,83.0627 680.5,81.5C 694.279,75.3547 708.613,73.8547 723.5,77C 727.804,78.4379 731.971,80.2713 736,82.5C 735.054,87.518 733.554,92.518 731.5,97.5C 716.065,89.0481 701.065,89.5481 686.5,99C 677.332,110.224 674.165,123.058 677,137.5C 679.486,156.327 690.153,165.327 709,164.5C 717.341,165.22 725.174,163.553 732.5,159.5C 734.604,163.232 736.104,167.232 737,171.5C 737.781,172.944 737.614,174.277 736.5,175.5C 714.579,184.857 693.579,183.357 673.5,171C 666.181,164.338 661.347,156.171 659,146.5C 657.641,136.891 657.141,127.224 657.5,117.5 Z"/></g>
        <g><path id="r" d="M 770.5,117.5 C 769.503,137.66 769.17,157.993 769.5,178.5C 763.833,178.5 758.167,178.5 752.5,178.5C 752.5,154.167 752.5,129.833 752.5,105.5C 767.671,101.08 783.005,100.413 798.5,103.5C 798.833,103.833 799.167,104.167 799.5,104.5C 798.258,109.218 796.925,113.885 795.5,118.5C 787.213,116.309 778.88,115.976 770.5,117.5 Z"/></g>
        <g transform="translate(-10,0)">
            <g><path id="a" d="M 835.5 100.5 C 846.148 99.2806 856.148 101.114 865.5 106 C 870.359 110.179 873.526 115.346 875 121.5 C 875.667 140.167 875.667 158.833 875 177.5 C 861.679 180.328 848.179 181.161 834.5 180 C 816.22 175.061 810.053 163.561 816 145.5 C 820.343 138.737 826.51 134.571 834.5 133 C 842.519 132.39 850.519 132.557 858.5 133.5 C 859.487 120.322 853.321 114.322 840 115.5 C 833.969 115.54 828.136 116.54 822.5 118.5 C 821.997 113.828 821.831 109.161 822 104.5 C 826.403 102.481 830.903 101.148 835.5 100.5 Z M 857.984 146.546 C 851.875 145.514 845.766 145.342 839.484 145.514 C 835.698 146.374 833.289 148.611 831.998 152.484 C 829.933 159.711 832.601 164.186 839.57 166.079 C 845.766 166.423 852.133 166.595 858.501 166.595 C 858.673 159.797 858.501 153.172 857.984 146.546 Z"/></g>
            <g><path id="f" d="M 912.5,65.5 C 921.387,64.8642 930.054,65.8642 938.5,68.5C 938.833,68.8333 939.167,69.1667 939.5,69.5C 938.026,73.7307 937.026,78.064 936.5,82.5C 932.045,81.5956 927.545,80.929 923,80.5C 915.961,79.8807 911.295,82.8807 909,89.5C 908.501,93.8206 908.334,98.1539 908.5,102.5C 917.5,102.5 926.5,102.5 935.5,102.5C 935.5,107.5 935.5,112.5 935.5,117.5C 926.167,117.5 916.833,117.5 907.5,117.5C 907.5,138.167 907.5,158.833 907.5,179.5C 901.833,179.5 896.167,179.5 890.5,179.5C 890.333,149.165 890.5,118.832 891,88.5C 893.918,76.7517 901.085,69.085 912.5,65.5 Z"/></g>
            <g><path id="t" d="M 963.5,79.5 C 965.167,79.5 966.833,79.5 968.5,79.5C 968.5,87.1667 968.5,94.8333 968.5,102.5C 977.833,102.5 987.167,102.5 996.5,102.5C 996.5,107.5 996.5,112.5 996.5,117.5C 987.167,117.5 977.833,117.5 968.5,117.5C 968.333,129.505 968.5,141.505 969,153.5C 969.603,162.557 974.436,166.557 983.5,165.5C 987.639,165.587 991.639,164.92 995.5,163.5C 996.086,163.709 996.586,164.043 997,164.5C 998.51,168.834 999.01,173.168 998.5,177.5C 986.422,181.662 974.422,181.496 962.5,177C 956.951,172.439 953.451,166.606 952,159.5C 951.5,133.502 951.333,107.502 951.5,81.5C 955.733,81.4613 959.733,80.7947 963.5,79.5 Z"/></g>
            <g><path id="s" d="M 1035.5,100.5 C 1042.55,100.337 1049.55,100.837 1056.5,102C 1059.79,102.253 1062.79,103.253 1065.5,105C 1064.23,109.501 1062.9,114.001 1061.5,118.5C 1052.67,115.189 1043.67,114.689 1034.5,117C 1031.23,120.814 1031.23,124.814 1034.5,129C 1041.38,132.275 1048.38,135.275 1055.5,138C 1066.59,144.01 1070.75,153.176 1068,165.5C 1064.9,173.487 1059.07,178.321 1050.5,180C 1037.87,182.536 1025.54,181.536 1013.5,177C 1013.04,176.586 1012.71,176.086 1012.5,175.5C 1013.66,171.199 1014.66,166.866 1015.5,162.5C 1022.65,164.788 1029.99,166.121 1037.5,166.5C 1047.91,168.592 1052.07,164.592 1050,154.5C 1041.9,149.574 1033.4,145.408 1024.5,142C 1015.65,136.125 1012.49,127.958 1015,117.5C 1016.6,111.62 1020.1,107.286 1025.5,104.5C 1028.7,102.586 1032.03,101.253 1035.5,100.5 Z"/></g>
        </g>
    </g>
</g>
</svg>
